<?xml version="1.0" encoding="UTF-8" standalone="no"?>
<!DOCTYPE svg PUBLIC "-//W3C//DTD SVG 1.1//EN" "http://www.w3.org/Graphics/SVG/1.1/DTD/svg11.dtd">
<svg width="100%" height="100%" viewBox="0 0 700 700" version="1.1" xmlns="http://www.w3.org/2000/svg" xmlns:xlink="http://www.w3.org/1999/xlink" xml:space="preserve" xmlns:serif="http://www.serif.com/" style="fill-rule:evenodd;clip-rule:evenodd;stroke-linejoin:round;stroke-miterlimit:1.41421;">
    <g transform="matrix(1.07756,0,0,1.07756,-6.82972,-8.21562)">
        <g id="Layer1">
            <path d="M635.741,180.302C635.741,96.246 567.499,28.004 483.444,28.004L178.848,28.004C94.793,28.004 26.55,96.246 26.55,180.302L26.55,484.897C26.55,568.953 94.793,637.195 178.848,637.195L483.444,637.195C567.499,637.195 635.741,568.953 635.741,484.897L635.741,180.302Z" style="fill:rgb(128,128,128);"/>
        </g>
    </g>
    <g transform="matrix(0.960574,0,0,1.13812,13.7991,-48.1628)">
        <g transform="matrix(0.86601,0,0,0.86601,46.8946,96.0575)">
            <path d="M206.73,352.44C203.929,351.358 201.32,349.87 198.968,348.022L198.558,347.698L198.226,347.284C156.691,295.624 135.492,273.155 86.976,236.824L144.437,379.784L144.437,393.346C144.437,397.154 147.527,400.248 151.336,400.248L206.316,400.248L210.073,443.338C155.139,445.904 139.487,468.9 138.553,470.826L137.585,472.459L137.585,482.783C130.057,485.197 124.605,492.248 124.605,500.58C124.605,510.9 132.968,519.268 143.293,519.268C153.617,519.268 161.984,510.901 161.984,500.58C161.984,493.17 157.663,486.787 151.41,483.764L151.406,476.709C155.124,472.576 169.75,459.096 211.277,457.166L213.531,482.986C206.288,485.56 201.101,492.455 201.101,500.58C201.101,510.9 209.468,519.268 219.789,519.268C230.109,519.268 238.477,510.901 238.477,500.58C238.477,493.354 234.367,487.096 228.368,483.986L230.707,457.158C255.055,458.268 270.203,463.443 279.25,468.283C284.356,471.021 287.551,473.658 289.418,475.486C289.883,475.943 290.27,476.353 290.575,476.701L290.575,483.447C283.961,486.326 279.333,492.912 279.333,500.584C279.333,510.904 287.7,519.272 298.021,519.272C308.341,519.272 316.709,510.905 316.709,500.584C316.709,492.506 311.572,485.639 304.393,483.033L304.393,472.467L303.428,470.834C302.494,468.909 286.838,445.912 231.905,443.346L235.663,400.256L300.768,400.256C304.576,400.256 307.67,397.167 307.67,393.354L307.67,367.709C307.67,363.9 304.58,360.807 300.768,360.807C300.768,360.807 283.147,364.584 248.823,366.104L242.311,351.456C236.811,355.147 230.448,357.108 223.768,357.108C217.78,357.108 211.893,355.495 206.729,352.44L206.73,352.44Z" style="fill-rule:nonzero;"/>
        </g>
        <g transform="matrix(0.86601,0,0,0.86601,46.8946,96.0575)">
            <path d="M394.72,241.77C420.755,241.77 447.478,244.344 474.189,249.426C485.349,251.543 494.142,259.028 498.451,268.692C499.764,265.989 500.685,263.048 501.099,259.903C503.181,244.133 492.092,229.661 476.326,227.583L476.322,227.579C457.552,225.099 439.638,223.981 422.638,223.981C352.154,223.958 297.588,243.251 260.798,262.805C260.619,262.903 260.455,262.997 260.275,263.091C261.338,263.876 262.408,264.661 263.521,265.446C304.205,249.739 348.33,241.77 394.721,241.77L394.72,241.77Z" style="fill-rule:nonzero;"/>
        </g>
        <g transform="matrix(0.86601,0,0,0.86601,46.8946,96.0575)">
            <path d="M496.24,287.61C499.213,271.985 488.955,256.911 473.326,253.942C445.252,248.602 418.982,246.368 394.756,246.368C339.322,246.364 294.696,258.075 262.896,270.63C215.845,238.079 210.419,208.485 205.693,163.97C206.986,161.294 208.341,158.392 209.713,155.298C212.849,148.185 216.037,140.15 218.545,131.771C221.025,123.361 222.927,114.673 222.963,105.517C222.939,97.173 221.322,87.4 214.197,78.888C210.689,74.736 205.904,71.392 200.767,69.411C195.615,67.4 190.212,66.607 184.736,66.607C173.349,66.712 161.15,69.802 146.291,75.786C151.135,80.079 155.287,85.224 158.479,91.098C161.467,96.602 163.424,102.391 164.452,108.246C174.362,104.637 181.272,103.383 184.737,103.473C185.237,103.473 185.655,103.492 185.998,103.52C186.061,104.043 186.108,104.719 186.104,105.516C186.139,109.09 185.123,114.965 183.221,121.239C180.412,130.7 175.85,141.141 172.014,148.962C170.561,151.931 169.221,154.532 168.116,156.606C144.241,168.184 120.362,179.758 96.487,191.336C95.045,192.02 93.537,193.215 92.045,194.719C83.537,194.036 72.287,192.758 61.893,190.422C52.866,188.465 44.541,185.508 40.198,182.75C38.413,181.664 37.366,180.688 36.936,180.2C37.171,179.032 39.085,174.782 44.917,168.755C49.245,164.215 55.605,158.724 64.202,152.478C62.386,150.122 60.718,147.622 59.272,144.954C54.237,135.677 52.085,125.595 52.503,115.739C35.636,127.036 23.456,137.145 14.761,147.141C5.999,157.321 0.12,168.114 0.007,180.606C-0.071,188.848 3.097,196.786 7.554,202.461C15.491,212.469 25.663,217.367 35.902,221.242C51.343,226.84 68.183,229.336 81.625,230.773C83.609,230.976 85.507,231.156 87.316,231.309C139.117,269.875 160.586,293.094 201.826,344.389C204.01,346.107 206.365,347.381 208.76,348.267C213.318,351.049 218.529,352.494 223.78,352.494C229.92,352.494 236.108,350.537 241.342,346.506C242.025,345.974 297.967,303.889 394.752,303.959C398.205,303.959 401.728,304.033 405.291,304.142L405.291,325.947C405.291,330.432 408.927,334.065 413.408,334.065L422.705,334.065C419.091,340.502 416.631,347.999 415.83,356.276C411.103,402.964 400.334,484.366 397.525,520.276L426.037,520.276C427.291,504.253 441.428,385.576 444.103,359.136C444.841,352.37 446.915,348.093 449.884,344.46C453.517,340.003 459.345,336.506 466.357,334.069L631.167,334.069C638.186,336.502 644.007,340.002 647.644,344.46C650.613,348.096 652.683,352.374 653.421,359.136C656.097,385.581 670.237,504.256 671.487,520.276L699.999,520.276C697.195,484.362 686.425,402.956 681.698,356.276C680.894,348.002 678.433,340.506 674.823,334.065L684.112,334.065C688.597,334.065 692.23,330.436 692.23,325.947L692.23,300.228C692.23,295.744 688.593,292.107 684.112,292.107L494.962,292.107C495.49,290.666 495.939,289.174 496.236,287.607L496.24,287.61Z" style="fill-rule:nonzero;"/>
        </g>
        <g transform="matrix(0.86601,0,0,0.86601,46.8946,96.0575)">
            <path d="M154.42,93.301C168.08,118.457 158.756,149.926 133.596,163.582C108.44,177.242 76.971,167.922 63.315,142.762C49.655,117.606 58.979,86.137 84.139,72.481C109.295,58.821 140.764,68.145 154.42,93.301" style="fill-rule:nonzero;"/>
        </g>
        <g transform="matrix(0.86601,0,0,0.86601,46.8946,96.0575)">
            <path d="M521.83,281.52L646.51,281.52C649.057,281.52 651.127,279.45 651.127,276.899L651.127,269.973C651.127,267.422 649.057,265.356 646.51,265.356L640.842,265.356L679.705,151.646C680.529,149.228 679.24,146.607 676.83,145.783L670.275,143.54C667.865,142.716 665.236,144.005 664.412,146.415L624.092,264.395C623.983,264.716 623.916,265.036 623.877,265.36L521.837,265.36C519.29,265.36 517.22,267.423 517.22,269.977L517.22,276.903C517.22,279.454 519.286,281.524 521.837,281.524L521.83,281.52Z" style="fill-rule:nonzero;"/>
        </g>
    </g>
</svg>
