<?xml version="1.0" encoding="UTF-8" standalone="no"?>
<!DOCTYPE svg PUBLIC "-//W3C//DTD SVG 1.1//EN" "http://www.w3.org/Graphics/SVG/1.1/DTD/svg11.dtd">
<svg width="100%" height="100%" viewBox="0 0 700 700" version="1.1" xmlns="http://www.w3.org/2000/svg" xmlns:xlink="http://www.w3.org/1999/xlink" xml:space="preserve" xmlns:serif="http://www.serif.com/" style="fill-rule:evenodd;clip-rule:evenodd;stroke-linejoin:round;stroke-miterlimit:1.41421;">
    <g transform="matrix(1.07756,0,0,1.07756,-6.82972,-8.21562)">
        <g id="Layer1">
            <path d="M635.741,180.302C635.741,96.246 567.499,28.004 483.444,28.004L178.848,28.004C94.793,28.004 26.55,96.246 26.55,180.302L26.55,484.897C26.55,568.953 94.793,637.195 178.848,637.195L483.444,637.195C567.499,637.195 635.741,568.953 635.741,484.897L635.741,180.302Z" style="fill:rgb(128,128,128);"/>
        </g>
    </g>
    <g transform="matrix(1.29231,0,0,1.29231,-102.31,-11.6677)">
        <path d="M350,122.5C207.2,122.5 138.43,249.73 124.07,280C138.422,311.148 205.968,437.5 350,437.5C492.8,437.5 561.57,310.27 575.93,280C561.578,248.852 494.028,122.5 350,122.5ZM350,367.5C301.699,367.5 262.5,328.301 262.5,280C262.5,231.699 301.699,192.5 350,192.5C398.301,192.5 437.5,231.699 437.5,280C437.5,328.301 398.301,367.5 350,367.5Z" style="fill-rule:nonzero;"/>
    </g>
</svg>
