<?xml version="1.0" encoding="UTF-8" standalone="no"?>
<!DOCTYPE svg PUBLIC "-//W3C//DTD SVG 1.1//EN" "http://www.w3.org/Graphics/SVG/1.1/DTD/svg11.dtd">
<svg width="100%" height="100%" viewBox="0 0 700 700" version="1.1" xmlns="http://www.w3.org/2000/svg" xmlns:xlink="http://www.w3.org/1999/xlink" xml:space="preserve" xmlns:serif="http://www.serif.com/" style="fill-rule:evenodd;clip-rule:evenodd;stroke-linejoin:round;stroke-miterlimit:1.41421;">
    <g transform="matrix(1.07756,0,0,1.07756,-6.82972,-8.21562)">
        <g id="Layer1">
            <path d="M635.741,180.302C635.741,96.246 567.499,28.004 483.444,28.004L178.848,28.004C94.793,28.004 26.55,96.246 26.55,180.302L26.55,484.897C26.55,568.953 94.793,637.195 178.848,637.195L483.444,637.195C567.499,637.195 635.741,568.953 635.741,484.897L635.741,180.302Z" style="fill:rgb(128,128,128);"/>
        </g>
    </g>
    <g>
        <g transform="matrix(1.06524,0,0,1.31364,-17.869,-20.2671)">
            <path d="M98,466.67L172.668,466.67L172.668,133.47L98,172.673L98,466.67Z" style="fill-rule:nonzero;"/>
        </g>
        <g transform="matrix(1.06524,0,0,1.31364,-17.869,-20.2671)">
            <path d="M434,231.46L434,173.597L592.67,308.927L592.67,294.927L402.27,97.057L247.34,169.858L247.34,217.456L200.676,237.991L200.676,466.661L266.008,466.661L266.008,205.321L303.34,205.321L303.34,466.661L592.68,466.661L592.68,447.059L434.01,438.661L434.01,398.528L592.68,421.86L592.68,405.993L434.01,371.458L434.01,332.259L592.68,377.993L592.68,362.126L434.01,311.728L434.01,258.529L592.68,339.728L592.68,322.927L434,231.46Z" style="fill-rule:nonzero;"/>
        </g>
    </g>
</svg>
